<svg version="1.2" xmlns="http://www.w3.org/2000/svg" viewBox="0 0 877 379" width="877" height="379"><style></style><path  d="m117 292.5q-22.8 0-38.5-12.5-15.5-12.8-22.8-34l31.1-14.5 2.9 5q7.3 12.5 13.8 19.5 6.7 7 16.8 7 6.4 0 11.4-6.3 5.3-6.2 5.3-13.7 0-7-3.5-12.8-3.5-5.7-9-9.2l-32.8-19.5q-14.2-8-22.7-20.3-8.5-12.2-8.5-27.4 0-16.3 7.5-29.1 7.7-12.7 20.7-19.7 13.3-7 29.8-7 19.2 0 32.7 9.5 13.5 9.5 20 28.3l-31 13.9q-1-2-4.2-9-3.3-7-8-10-4.5-3.2-11.3-3.2-8.2 0-12.7 5.2-4.3 5.3-4.3 13.5 0 6 3.3 11 3.5 4.8 8.2 7.5l30.3 17.8q33.5 19 35.2 50 0 17.7-8 31.5-7.7 13.5-21.5 21-13.5 7.5-30.2 7.5zm81.5 40.3v-181.6l35-3v13.8q8.2-8.3 15.2-11.8 7.3-3.7 16.8-3.7 13 0 20.5 7.2 7.7 7.3 11 22.8 3.5 15.2 3.5 41 0 35.2-8.3 55-8 19.7-31 19.7-10.5 0-16.7-4-6.3-4-11-11.2v48.7zm50.2-67.2q8.3 0 12.3-9.8 4.2-9.7 4.2-36.7 0-25.8-4.2-36.5-4-10.8-12.5-10.8-8.8 0-15 9.8v72.8q5 11.2 15.2 11.2zm121.8 26.8q-25.3 0-39-20.1-13.5-19.9-13.5-53.2 0-33 13.5-52.7 13.5-19.8 39-19.8 25.2 0 39 19.8 14 19.7 14 52.7 0 33-14 53.3-13.8 20-39 20zm0-26q11.2 0 14.5-13.8 3.2-13.7 3.2-33.7 0-20-3.2-33.8-3.3-13.7-14.5-13.7-11.3 0-14.3 13-3 13-3 31.7 0 23 3 36.8 3 13.5 14.3 13.5zm76.7 24.2v-139.3l35-2.9v22.7q7.5-10.7 18.5-17.2 11.3-6.8 28.5-6.8v34.3q-9 0-23.7 3.2-14.5 3-23.3 10.8v92.2zm149 1.3q-17 0-28.7-8.5-11.8-8.8-11.8-30.8v-77.7h-19.5l1.5-26.5h19l3.5-30.5 30.5-4.3v34.8h29l-1.5 26.5h-27.2v77.5q0 7.5 3.7 10.7 3.8 3.3 11 3.3 4 0 13.5-1.5v24.2q-1 0.3-8 1.5-6.7 1.3-15 1.3zm122.5-2.8h-34.7l46.7-95.2-44.7-92.3h43.7l21.8 48.8 22.5-48.8h35l-42.3 85.3 48.5 102.2h-43.5l-26.5-58.7z"/></svg>