<svg xmlns="http://www.w3.org/2000/svg" width="32" height="32" id="game"><g transform="translate(0 -1020.362)"><circle cx="16" cy="1036.362" r="16" fill="#24c4bc" fill-rule="evenodd"></circle><path fill="#249eb2" style="line-height:normal;text-indent:0;text-align:start;text-decoration-line:none;text-decoration-style:solid;text-decoration-color:#000;text-transform:none;block-progression:tb;isolation:auto;mix-blend-mode:normal" d="M18.906 31.725a16 16 0 0 0 1.373-.309 16 16 0 0 0 1.518-.504 16 16 0 0 0 1.46-.652 16 16 0 0 0 1.388-.797 16 16 0 0 0 1.3-.93 16 16 0 0 0 1.201-1.054 16 16 0 0 0 1.092-1.172 16 16 0 0 0 .967-1.272 16 16 0 0 0 .836-1.365 16 16 0 0 0 .695-1.44 16 16 0 0 0 .092-.251l-15.78-15.78h-.001a.313.313 0 0 0-.219-.092v.004h-.74a.31.31 0 0 0-.309.309v4.16c0 .3-.104.675-.279.945-.175.27-.583.424-.895.424a.31.31 0 0 0-.31.309v12.406c0 .144.035.278.086.402l.015.043c.054.119.13.223.221.319.007.007.009.016.016.023l6.273 6.274z" color="#000" font-family="sans-serif" font-weight="400" transform="translate(0 1020.362)"></path><path fill="#fff" style="line-height:normal;text-indent:0;text-align:start;text-decoration-line:none;text-decoration-style:solid;text-decoration-color:#000;text-transform:none;block-progression:tb;isolation:auto;mix-blend-mode:normal" d="M14.828 1026.473h-.74a.309.309 0 0 0-.309.31v4.16c0 .3-.103.675-.279.945-.175.27-.584.423-.895.423a.309.309 0 0 0-.31.309v12.406c0 .712.682 1.222 1.443 1.222h1.133c.552 0 .977-.106 1.284-.323.306-.218.467-.56.467-.898v-12.41a.31.31 0 0 0-.309-.309c-.307 0-.75-.155-.913-.418a1.98 1.98 0 0 1-.261-.889v-4.221a.31.31 0 0 0-.31-.31zm-.374 6.68a.31.31 0 0 1 .314.314v10.27l.566.49a.31.31 0 1 1-.404.466l-.464-.402-.393.366a.31.31 0 1 1-.422-.452l.499-.464v-10.274a.31.31 0 0 1 .304-.314zm6.626 6.979a3.007 3.007 0 0 0-2.594 2.07 3 3 0 0 0 1.208 3.414l-.02-.11.207-.65.033-.072.271-.166.293.13.055.314-.206.652-.033.07-.15.092a2.949 2.949 0 0 0 .656.198l-.032-.175.054-.166.03-.07.274-.166.29.13.056.314-.052.167h-.002a3.001 3.001 0 0 0 2.786-2.07 2.998 2.998 0 0 0-1.064-3.31l-.21.65-.03.07-.272.167-.292-.13-.057-.314.209-.652.032-.07.086-.052a3.055 3.055 0 0 0-.342-.137c-.077-.025-.154-.044-.231-.063l.018.104-.063.196-.031.07-.272.167-.292-.131-.057-.314.05-.158c-.101-.001-.205-.013-.306 0zm.352.576.291.131.057.314-.208.652-.031.069-.272.169-.292-.132-.056-.314.208-.652.03-.07.273-.167zm.943.88.291.131.057.314-.21.652-.03.069-.272.168-.292-.13-.057-.316.209-.652.031-.069.273-.166zm-1.358.423.291.13.057.316-.208.651-.031.07-.272.166-.292-.13-.057-.314.208-.652.031-.069.273-.168zm.942.879.29.132.057.315-.209.65-.03.07-.273.168-.292-.132-.056-.315.208-.65.032-.07.273-.168zm-1.357.424.29.13.056.314-.206.652-.033.07-.271.167-.291-.13-.057-.314.208-.652.031-.07.273-.168zm.94.88.291.129.056.316-.208.652-.031.069-.272.167-.292-.13-.056-.315.207-.652.032-.07.273-.166z" color="#000" font-family="sans-serif" font-weight="400" overflow="visible"></path></g></svg>